<svg width="73" height="54" viewBox="0 0 73 54" fill="none" xmlns="http://www.w3.org/2000/svg">
<path d="M66.1562 0H6.84375C3.07969 0 0 3.0375 0 6.75V47.25C0 50.9625 3.07969 54 6.84375 54H66.1562C69.9203 54 73 50.9625 73 47.25V6.75C73 3.0375 69.9203 0 66.1562 0ZM6.84375 4.5H66.1562C67.3927 4.5 68.4375 5.5305 68.4375 6.75V13.5H4.5625V6.75C4.5625 5.5305 5.60731 4.5 6.84375 4.5ZM66.1562 49.5H6.84375C5.60731 49.5 4.5625 48.4695 4.5625 47.25V27H68.4375V47.25C68.4375 48.4695 67.3927 49.5 66.1562 49.5ZM9.125 36H13.6875V45H9.125V36ZM18.25 36H22.8125V45H18.25V36ZM27.375 36H31.9375V45H27.375V36Z" fill="#24717B"/>
</svg>
